<svg width="54" height="56" viewBox="0 0 54 56" fill="none" xmlns="http://www.w3.org/2000/svg">
<rect x="1" y="1" width="52" height="54" rx="26" stroke="white" stroke-width="2"/>
<g clip-path="url(#clip0_3_155)">
<path d="M27.5028 21.8212C23.9557 21.8212 21.0945 25.0263 21.0945 29C21.0945 32.9737 23.9557 36.1788 27.5028 36.1788C31.0499 36.1788 33.911 32.9737 33.911 29C33.911 25.0263 31.0499 21.8212 27.5028 21.8212ZM27.5028 33.6672C25.2105 33.6672 23.3366 31.5741 23.3366 29C23.3366 26.4259 25.205 24.3328 27.5028 24.3328C29.8006 24.3328 31.669 26.4259 31.669 29C31.669 31.5741 29.795 33.6672 27.5028 33.6672V33.6672ZM35.6679 21.5275C35.6679 22.4584 34.9986 23.2019 34.1732 23.2019C33.3422 23.2019 32.6785 22.4522 32.6785 21.5275C32.6785 20.6028 33.3477 19.8531 34.1732 19.8531C34.9986 19.8531 35.6679 20.6028 35.6679 21.5275ZM39.9122 23.2269C39.8173 20.9839 39.36 18.9971 37.8932 17.3601C36.432 15.7232 34.6584 15.2109 32.6562 15.0984C30.5926 14.9672 24.4074 14.9672 22.3438 15.0984C20.3472 15.2046 18.5736 15.7169 17.1068 17.3539C15.64 18.9909 15.1882 20.9777 15.0878 23.2207C14.9707 25.5324 14.9707 32.4613 15.0878 34.7731C15.1827 37.0161 15.64 39.0029 17.1068 40.6399C18.5736 42.2768 20.3416 42.7891 22.3438 42.9016C24.4074 43.0328 30.5926 43.0328 32.6562 42.9016C34.6584 42.7954 36.432 42.2831 37.8932 40.6399C39.3544 39.0029 39.8118 37.0161 39.9122 34.7731C40.0293 32.4613 40.0293 25.5387 39.9122 23.2269V23.2269ZM37.2462 37.2535C36.8112 38.4781 35.969 39.4215 34.8703 39.9151C33.225 40.6461 29.321 40.4774 27.5028 40.4774C25.6846 40.4774 21.775 40.6399 20.1352 39.9151C19.0421 39.4278 18.1999 38.4843 17.7593 37.2535C17.1068 35.4104 17.2574 31.0368 17.2574 29C17.2574 26.9632 17.1124 22.5834 17.7593 20.7465C18.1944 19.5219 19.0365 18.5785 20.1352 18.0849C21.7805 17.3539 25.6846 17.5226 27.5028 17.5226C29.321 17.5226 33.2306 17.3601 34.8703 18.0849C35.9635 18.5722 36.8056 19.5157 37.2462 20.7465C37.8988 22.5896 37.7482 26.9632 37.7482 29C37.7482 31.0368 37.8988 35.4166 37.2462 37.2535Z" fill="white"/>
</g>
<defs>
<clipPath id="clip0_3_155">
<rect width="25" height="28" fill="white" transform="translate(15 15)"/>
</clipPath>
</defs>
</svg>
