<svg width="54" height="56" viewBox="0 0 54 56" fill="none" xmlns="http://www.w3.org/2000/svg">
<path d="M37.533 23.0007C37.5482 23.2405 37.5482 23.4804 37.5482 23.7202C37.5482 31.0355 32.599 39.4645 23.5533 39.4645C20.7665 39.4645 18.1777 38.5565 16 36.9804C16.396 37.0317 16.7766 37.0489 17.1878 37.0489C19.4873 37.0489 21.604 36.1752 23.2944 34.6847C21.132 34.6333 19.3198 33.04 18.6954 30.8471C19 30.8985 19.3045 30.9328 19.6244 30.9328C20.066 30.9328 20.5076 30.8642 20.9188 30.7443C18.665 30.2303 16.9746 28.0032 16.9746 25.3135V25.245C17.6294 25.6562 18.3909 25.9131 19.1979 25.9473C17.873 24.9537 17.005 23.2576 17.005 21.3388C17.005 20.3109 17.2487 19.3687 17.6751 18.5463C20.0964 21.9042 23.736 24.0971 27.8172 24.3369C27.7411 23.9258 27.6954 23.4975 27.6954 23.0692C27.6954 20.0197 29.8883 17.5356 32.6141 17.5356C34.0304 17.5356 35.3095 18.2037 36.208 19.283C37.3197 19.0432 38.3857 18.5806 39.3299 17.9468C38.9643 19.2317 38.1877 20.311 37.1674 20.9962C38.1573 20.8764 39.1167 20.5679 39.9999 20.1397C39.33 21.2361 38.4924 22.2125 37.533 23.0007V23.0007Z" fill="white"/>
<rect x="1" y="1" width="52" height="54" rx="26" stroke="white" stroke-width="2"/>
</svg>
